<?xml version="1.0" encoding="utf-8"?>
<!-- Generator: Adobe Illustrator 19.0.0, SVG Export Plug-In . SVG Version: 6.00 Build 0)  -->
<svg version="1.1" xmlns="http://www.w3.org/2000/svg" xmlns:xlink="http://www.w3.org/1999/xlink" x="0px" y="0px"
	 viewBox="0 0 25 25" xml:space="preserve">
	<path fill="white" d="M16.4 9H18c.6 0 1 .4 1 1s-.4 1-1 1h-4c-.3 0-.5-.1-.7-.3-.2-.2-.3-.5-.3-.7V6c0-.6.4-1 1-1s1 .4 1 1v1.6l3.3-3.3c.4-.4 1.1-.3 1.4.1.4.4.4 1 0 1.4L16.4 9zM10 19c-.6 0-1-.4-1-1v-1.6l-3.3 3.3c-.4.4-1 .4-1.4 0-.4-.4-.4-1 0-1.4L7.6 15H6c-.6 0-1-.4-1-1s.4-1 1-1h4c.3 0 .5.1.7.3.2.2.3.5.3.7v4c0 .5-.4 1-1 1zm0-8H6c-.6 0-1-.4-1-1s.4-1 1-1h1.6L4.3 5.7c-.4-.4-.4-1 .1-1.4.4-.4 1-.4 1.4 0L9 7.6V6c0-.6.4-1 1-1s1 .4 1 1v4c0 .3-.1.5-.3.7-.2.2-.5.3-.7.3zm4 2h4c.6 0 1 .4 1 1s-.4 1-1 1h-1.6l3.3 3.3c.4.4.4 1 0 1.4s-1 .4-1.4 0L15 16.4V18c0 .6-.4 1-1 1s-1-.4-1-1v-4c0-.3.1-.5.3-.7.2-.2.5-.3.7-.3z"></path>
</svg>