<?xml version="1.0" encoding="utf-8"?>
<!-- Generator: Adobe Illustrator 19.0.0, SVG Export Plug-In . SVG Version: 6.00 Build 0)  -->
<svg version="1.1" xmlns="http://www.w3.org/2000/svg" xmlns:xlink="http://www.w3.org/1999/xlink" x="0px" y="0px"
	 viewBox="0 0 25 25" xml:space="preserve">
	<path fill="white" d="M19.7 19.7c-.2.2-.5.3-.7.3h-4c-.6 0-1-.4-1-1s.4-1 1-1h1.6l-3.3-3.3c-.4-.4-.3-1.1.1-1.4.4-.4 1-.4 1.4 0l3.3 3.3V15c0-.6.4-1 1-1s1 .4 1 1v4c-.1.2-.2.5-.4.7zM19 10c-.6 0-1-.4-1-1V7.4l-3.3 3.3c-.4.4-1 .4-1.4 0-.4-.4-.4-1 0-1.4L16.6 6H15c-.6 0-1-.4-1-1s.4-1 1-1h4c.3 0 .5.1.7.3.2.2.3.5.3.7v4c0 .6-.4 1-1 1zM7.4 18H9c.6 0 1 .4 1 1s-.4 1-1 1H5c-.3 0-.5-.1-.7-.3-.2-.2-.3-.5-.3-.7v-4c0-.6.4-1 1-1s1 .4 1 1v1.6l3.3-3.3c.4-.4 1.1-.3 1.4.1.4.4.4 1 0 1.4L7.4 18zm1.9-7.3L6 7.4V9c0 .6-.4 1-1 1s-1-.4-1-1V5c0-.3.1-.5.3-.7.2-.2.5-.3.7-.3h4c.6 0 1 .4 1 1s-.4 1-1 1H7.4l3.3 3.3c.4.4.4 1 0 1.4-.4.4-1 .4-1.4 0z"></path>
</svg>