<?xml version="1.0" encoding="utf-8"?>
<!-- Generator: Adobe Illustrator 19.0.0, SVG Export Plug-In . SVG Version: 6.00 Build 0)  -->
<svg version="1.1" xmlns="http://www.w3.org/2000/svg" xmlns:xlink="http://www.w3.org/1999/xlink" x="0px" y="0px"
	 viewBox="0 0 25 25" xml:space="preserve">
	<path fill="white" d="M16.394 12.566A5.88 5.88 0 0 0 17 10a5.97 5.97 0 0 0-1.682-4.151.993.993 0 0 1-.318-.724 1 1 0 0 1 1-1c.3 0 .561.139.745.348l.016-.016A7.969 7.969 0 0 1 19 10a7.934 7.934 0 0 1-1.116 4.055l-1.49-1.489zM11 3.792L8.978 5.149 7.62 3.792l3.63-2.435A.984.984 0 0 1 12 1c.009 0 .017.005.026.005a.954.954 0 0 1 .968.967c.001.01.006.018.006.028v7.171l-2-2V3.792zm7.864 14.072a.999.999 0 0 1-1.414 0L2.136 2.55a1 1 0 1 1 1.415-1.415L18.864 16.45a1 1 0 0 1 0 1.414zM3.171 5l2 2H3v6h3c.304 0 .567.143.75.357l4.25 2.85v-3.379l2 2V18c0 .009-.005.017-.005.027a.955.955 0 0 1-.967.968c-.01 0-.019.005-.028.005a.984.984 0 0 1-.75-.357L5.818 15H2a1 1 0 0 1-1-1V6a1 1 0 0 1 1-1h1.171z"></path>
</svg>