<?xml version="1.0" encoding="utf-8"?>
<!-- Generator: Adobe Illustrator 19.0.0, SVG Export Plug-In . SVG Version: 6.00 Build 0)  -->
<svg version="1.1" xmlns="http://www.w3.org/2000/svg" xmlns:xlink="http://www.w3.org/1999/xlink" x="0px" y="0px"
	 viewBox="0 0 25 25" xml:space="preserve">
	<path fill="white" d="M16.714 15.593l-.01-.01a1 1 0 0 1-1.705-.708c0-.287.124-.542.317-.724C16.354 13.073 17 11.614 17 10s-.645-3.072-1.682-4.151A.993.993 0 0 1 15 5.125a1 1 0 0 1 1-1c.3 0 .561.139.744.348l.017-.016A7.969 7.969 0 0 1 19 10c0 2.178-.874 4.15-2.286 5.593zm-3.999 3.122a.956.956 0 0 1-.688.28c-.009 0-.018.005-.027.005a.984.984 0 0 1-.75-.357L5.818 15H2a1 1 0 0 1-1-1V6a1 1 0 0 1 1-1h3.818l5.432-3.643A.984.984 0 0 1 12 1c.009 0 .017.005.026.005a.954.954 0 0 1 .968.967c.001.01.006.018.006.028v16c0 .009-.005.017-.005.026a.959.959 0 0 1-.28.689zM6.75 6.643A.984.984 0 0 1 6 7H3v6h3c.304 0 .567.143.75.357l4.25 2.85V3.792L6.75 6.643z"></path>
</svg>