<?xml version="1.0" encoding="utf-8"?>
<!-- Generator: Adobe Illustrator 19.0.0, SVG Export Plug-In . SVG Version: 6.00 Build 0)  -->
<svg version="1.1" id="图层_1" xmlns="http://www.w3.org/2000/svg" xmlns:xlink="http://www.w3.org/1999/xlink" x="0px" y="0px"
	 viewBox="0 0 36 36" style="enable-background:new -9 11 16 16;" xml:space="preserve">
	<path fill="white" d="M12 9h1c.6 0 1 .4 1 1v16c0 .6-.4 1-1 1h-1c-.6 0-1-.4-1-1V10c0-.6.4-1 1-1zm11 0h1c.6 0 1 .4 1 1v16c0 .6-.4 1-1 1h-1c-.6 0-1-.4-1-1V10c0-.6.4-1 1-1z"></path>
</svg>