<?xml version="1.0" encoding="utf-8"?>
<!-- Generator: Adobe Illustrator 19.0.0, SVG Export Plug-In . SVG Version: 6.00 Build 0)  -->
<svg version="1.1" id="图层_1" xmlns="http://www.w3.org/2000/svg" xmlns:xlink="http://www.w3.org/1999/xlink" x="0px" y="0px"
	 viewBox="0 0 36 36" style="enable-background:new -9 11 16 16;" xml:space="preserve">
	<path fill="white" d="M17.9 28c-4.9 0-9-3.6-9.8-8.3V19.4c0-.8.7-1.4 1.5-1.4s1.5.6 1.5 1.4c.8 3.8 4.5 6.2 8.3 5.4s6.2-4.5 5.4-8.3c-.7-3.2-3.5-5.6-6.9-5.6-1.8 0-3.6.7-4.8 2h1.3c.8 0 1.5.7 1.5 1.5s-.6 1.6-1.5 1.6h-4c-.8 0-1.5-.7-1.5-1.5v-4c0-.8.7-1.5 1.5-1.5.7 0 1.2.5 1.4 1.1C13.6 8.7 15.7 8 17.9 8c5.5 0 10 4.5 10 10s-4.4 10-10 10z"></path>
</svg>