<?xml version="1.0" encoding="utf-8"?>
<!-- Generator: Adobe Illustrator 19.0.0, SVG Export Plug-In . SVG Version: 6.00 Build 0)  -->
<svg version="1.1" id="图层_1" xmlns="http://www.w3.org/2000/svg" xmlns:xlink="http://www.w3.org/1999/xlink" x="0px" y="0px"
	 viewBox="0 0 36 36" style="enable-background:new -9 11 16 16;" xml:space="preserve">
	<path fill="#f7a455" class="cls-1" d="M32.2,28.3L19.4,5.9c-0.1-0.2-0.3-0.4-0.5-0.5c-0.3-0.2-0.8-0.2-1.1-0.1
      c-0.4,0.1-0.7,0.4-0.9,0.7L4,28.3c-0.1,0.2-0.2,0.5-0.2,0.7c0,0.8,0.6,1.5,1.4,1.5c0,0,0,0,0,0h25.6c0.7,0,1.3-0.4,1.4-1.1
      C32.4,29,32.4,28.6,32.2,28.3z M20,26.6c0,0.8-0.7,1.5-1.5,1.5h-0.8c-0.8,0-1.5-0.7-1.5-1.5v-0.8c0-0.8,0.7-1.5,1.5-1.5h0.8
      c0.8,0,1.5,0.7,1.5,1.5V26.6z M20,20.5c0,1-0.7,1.9-1.5,1.9h-0.8c-0.8,0-1.5-0.8-1.5-1.9v-7.3c0-1,0.7-1.9,1.5-1.9h0.8
      c0.8,0,1.5,0.8,1.5,1.9V20.5z"></path>
</svg>